HIERARCHY
ROOT Hips
{
	OFFSET 0.00000 0.00000 0.00000
	CHANNELS 6 Xposition Yposition Zposition Zrotation Yrotation Xrotation 
	JOINT LHipJoint
	{
		OFFSET 0 0 0
		CHANNELS 3 Zrotation Yrotation Xrotation
		JOINT LeftUpLeg
		{
			OFFSET 1.60223 -1.58443 0.78595
			CHANNELS 3 Zrotation Yrotation Xrotation
			JOINT LeftLeg
			{
				OFFSET 2.21690 -6.09089 0.00000
				CHANNELS 3 Zrotation Yrotation Xrotation
				JOINT LeftFoot
				{
					OFFSET 2.34805 -6.45122 0.00000
					CHANNELS 3 Zrotation Yrotation Xrotation
					JOINT LeftToeBase
					{
						OFFSET 0.35452 -0.97402 1.38549
						CHANNELS 3 Zrotation Yrotation Xrotation
						End Site
						{
							OFFSET 0.00000 -0.00000 0.82816
						}
					}
				}
			}
		}
	}
	JOINT RHipJoint
	{
		OFFSET 0 0 0
		CHANNELS 3 Zrotation Yrotation Xrotation
		JOINT RightUpLeg
		{
			OFFSET -1.56524 -1.58443 0.78595
			CHANNELS 3 Zrotation Yrotation Xrotation
			JOINT RightLeg
			{
				OFFSET -2.15558 -5.92241 0.00000
				CHANNELS 3 Zrotation Yrotation Xrotation
				JOINT RightFoot
				{
					OFFSET -2.35077 -6.45870 0.00000
					CHANNELS 3 Zrotation Yrotation Xrotation
					JOINT RightToeBase
					{
						OFFSET -0.26910 -0.73935 1.33295
						CHANNELS 3 Zrotation Yrotation Xrotation
						End Site
						{
							OFFSET -0.00000 -0.00000 0.75962
						}
					}
				}
			}
		}
	}
	JOINT LowerBack
	{
		OFFSET 0 0 0
		CHANNELS 3 Zrotation Yrotation Xrotation
		JOINT Spine
		{
			OFFSET -0.05489 1.97104 -0.02993
			CHANNELS 3 Zrotation Yrotation Xrotation
			JOINT Spine1
			{
				OFFSET -0.00702 1.94230 0.13626
				CHANNELS 3 Zrotation Yrotation Xrotation
				JOINT Neck
				{
					OFFSET 0 0 0
					CHANNELS 3 Zrotation Yrotation Xrotation
					JOINT Neck1
					{
						OFFSET -0.07858 1.62869 -0.02510
						CHANNELS 3 Zrotation Yrotation Xrotation
						JOINT Head
						{
							OFFSET 0.13978 1.59213 -0.29859
							CHANNELS 3 Zrotation Yrotation Xrotation
							End Site
							{
								OFFSET 0.05353 1.64420 -0.10000
							}
						}
					}
				}
				JOINT LeftShoulder
				{
					OFFSET 0 0 0
					CHANNELS 3 Zrotation Yrotation Xrotation
					JOINT LeftArm
					{
						OFFSET 3.48263 1.15278 0.52941
						CHANNELS 3 Zrotation Yrotation Xrotation
						JOINT LeftForeArm
						{
							OFFSET 4.59207 -0.00000 -0.00000
							CHANNELS 3 Zrotation Yrotation Xrotation
							JOINT LeftHand
							{
								OFFSET 2.98109 -0.00000 -0.00000
								CHANNELS 3 Zrotation Yrotation Xrotation
								JOINT LeftFingerBase
								{
									OFFSET 0 0 0
									CHANNELS 3 Zrotation Yrotation Xrotation
									JOINT LeftHandIndex1
									{
										OFFSET 0.48020 -0.00000 -0.00000
										CHANNELS 3 Zrotation Yrotation Xrotation
										End Site
										{
											OFFSET 0.38715 -0.00000 -0.00000
										}
									}
								}
								JOINT LThumb
								{
									OFFSET 0 0 0
									CHANNELS 3 Zrotation Yrotation Xrotation
									End Site
									{
										OFFSET 0.39306 -0.00000 0.39306
									}
								}
							}
						}
					}
				}
				JOINT RightShoulder
				{
					OFFSET 0 0 0
					CHANNELS 3 Zrotation Yrotation Xrotation
					JOINT RightArm
					{
						OFFSET -3.52496 1.12722 0.24548
						CHANNELS 3 Zrotation Yrotation Xrotation
						JOINT RightForeArm
						{
							OFFSET -4.76508 -0.00000 -0.00000
							CHANNELS 3 Zrotation Yrotation Xrotation
							JOINT RightHand
							{
								OFFSET -2.78902 -0.00000 -0.00000
								CHANNELS 3 Zrotation Yrotation Xrotation
								JOINT RightFingerBase
								{
									OFFSET 0 0 0
									CHANNELS 3 Zrotation Yrotation Xrotation
									JOINT RightHandIndex1
									{
										OFFSET -0.72130 -0.00000 -0.00000
										CHANNELS 3 Zrotation Yrotation Xrotation
										End Site
										{
											OFFSET -0.58153 -0.00000 -0.00000
										}
									}
								}
								JOINT RThumb
								{
									OFFSET 0 0 0
									CHANNELS 3 Zrotation Yrotation Xrotation
									End Site
									{
										OFFSET -0.59041 -0.00000 0.59041
									}
								}
							}
						}
					}
				}
			}
		}
	}
}
MOTION
Frames: 5
Frame Time: 0.008
0.00 0.00 0.00 -7.4120 -432.8990 -346.7470 0.0000 0.0000 0.0000 -17.8994 13.5318 -25.2974 8.8867 16.7342 55.6973 -2.0242 24.8366 -3.5535 0.4130 4.1254 11.4297 0.0000 0.0000 0.0000 26.0959 -5.6374 -28.3902 -4.4546 -12.7419 38.4099 -0.4261 -0.1146 -12.3740 -1.2641 -7.1269 20.0919 -3.2732 -0.1919 -4.8548 -5.3136 -1.0807 -10.2824 -3.7503 -0.7400 -8.1861 -6.8163 1.5246 -2.1900 17.2368 -0.9735 19.9275 6.7396 0.0455 6.3628 0.0000 -0.0000 0.0000 -78.0597 25.8852 62.0562 134.7681 -50.8816 -97.5815 -0.0000 -0.0000 17.6114 17.8844 29.8633 9.1281 -7.1250 0.0000 -0.0000 -15.4731 60.4157 -5.8998 0.0000 -0.0000 0.0000 10.9523 58.5010 -45.1992 -124.7156 54.9165 -89.5514 0.0000 -0.0000 -52.6324 -36.6002 56.4509 -31.7555 7.1250 -0.0000 -0.0000 5.8786 31.7549 8.1169
0.00 0.00 0.00 4.8913 -473.1710 -360.6300 0.0000 0.0000 0.0000 -20.7322 2.1702 -20.3999 9.9847 17.4012 59.4371 -1.1966 19.0362 -9.4153 0.0685 1.6880 4.6441 0.0000 0.0000 0.0000 25.2843 4.8243 -21.8621 -4.5773 -12.8913 38.9630 0.4070 11.7958 0.4551 -4.1320 -12.3340 36.9240 -3.7548 0.0840 -3.3122 -2.8640 -0.8882 -10.6531 -0.8594 -0.5595 -9.4272 -12.3853 -8.4987 4.6349 17.2669 -14.5344 11.4808 6.8251 -7.5386 4.7894 0.0000 -0.0000 0.0000 -78.9176 27.3684 55.4499 133.5071 -51.4792 -96.5990 -0.0000 -0.0000 22.4399 4.5822 29.9733 2.2929 -7.1250 0.0000 -0.0000 -29.2646 57.5330 -9.5235 0.0000 -0.0000 0.0000 46.3768 60.8941 -20.4944 -123.8085 55.2066 -88.8078 0.0000 -0.0000 -64.5560 -42.1145 54.0310 -36.1916 7.1250 -0.0000 -0.0000 2.7027 31.6749 3.7217
0.00 0.00 0.00 5.4878 -502.2380 -360.2810 0.0000 0.0000 0.0000 -16.7449 -9.4386 -19.1392 9.9962 17.4077 59.4757 -0.0795 12.3981 -16.5579 0.0028 -0.3447 -0.9471 0.0000 0.0000 0.0000 26.2126 7.0223 -18.7899 -4.2157 -12.4420 37.3142 0.4898 17.0082 18.8257 -4.3663 -12.6325 38.0080 -1.5671 0.5036 -2.7568 0.4017 -0.1754 -10.5986 1.3699 -0.2765 -9.6570 -13.6340 -16.1703 12.8748 15.4058 -25.3652 4.6773 6.2327 -13.4402 3.0597 -0.0000 -0.0000 0.0000 -78.6088 32.3161 50.8785 134.6726 -50.9279 -97.5073 -0.0000 -0.0000 18.6812 4.5150 29.9720 2.2591 -7.1250 0.0000 -0.0000 -29.3293 57.5177 -9.5360 -0.0000 -0.0000 0.0000 67.4698 57.4928 -0.2855 -118.9671 56.5789 -84.7981 0.0000 -0.0000 -67.8047 -45.3459 53.5521 -39.1514 7.1250 -0.0000 -0.0000 1.2685 32.5766 1.7522
0.00 0.00 0.00 4.7945 -549.2590 -356.5580 0.0000 0.0000 0.0000 -11.8111 -38.9066 -2.3650 5.6510 14.0814 43.5646 -0.7528 -17.0812 -2.1351 2.8362 -10.4251 -30.3647 0.0000 0.0000 0.0000 23.9886 21.2758 -12.0575 -3.2473 -11.0849 32.5669 0.8462 22.1384 24.5795 -0.8640 -5.9270 16.5729 -0.5487 0.3267 -2.5374 3.9855 1.7809 -9.4111 4.3783 1.5650 -8.6359 -13.4025 -20.0114 13.8738 11.4772 -27.9015 6.1859 4.9082 -13.9843 3.2111 0.0000 -0.0000 0.0000 -71.7733 36.8261 52.7299 133.5715 -51.4494 -96.6493 -0.0000 -0.0000 11.3587 2.5196 30.8813 1.2938 -7.1250 0.0000 -0.0000 -32.0399 57.8684 -10.8184 0.0000 -0.0000 0.0000 90.2650 46.3737 21.8343 -110.2313 58.3955 -77.4264 0.0000 -0.0000 -69.7292 -40.7141 43.6098 -30.6920 7.1250 -0.0000 -0.0000 -1.1876 21.5026 -1.5404
0.00 0.00 0.00 0.2828 -584.6710 -357.7380 0.0000 0.0000 0.0000 -19.4409 -12.3177 -1.4384 3.0424 10.7633 31.4858 -1.4312 -23.9473 -4.2071 3.2309 -11.0597 -32.4815 0.0000 0.0000 0.0000 15.9989 19.3470 -21.6825 -4.9034 -13.2742 40.4038 0.1753 12.1536 14.6982 -0.0318 -1.1515 3.1658 -1.9003 1.6356 -0.2556 3.1882 2.7278 -7.2143 4.2211 1.7645 -7.6559 -10.8122 -15.4611 10.6645 10.5271 -21.5793 7.5457 4.5371 -10.7933 2.9072 -0.0000 -0.0000 0.0000 -73.6101 21.6559 55.9738 116.0907 -57.2647 -82.3877 -0.0000 -0.0000 0.8334 11.5667 30.7974 5.9821 -7.1250 0.0000 -0.0000 -22.8969 59.8103 -8.5473 -0.0000 -0.0000 0.0000 98.6328 35.8057 39.8787 -96.4695 59.8413 -65.5998 0.0000 -0.0000 -66.1895 -38.6639 42.6355 -28.4552 7.1250 -0.0000 -0.0000 -0.5784 19.7173 -0.7397
